<?xml version="1.0" encoding="utf-8"?>
<!-- Generator: Adobe Illustrator 28.0.0, SVG Export Plug-In . SVG Version: 6.00 Build 0)  -->
<svg version="1.1" id="Layer_1" xmlns="http://www.w3.org/2000/svg" xmlns:xlink="http://www.w3.org/1999/xlink" x="0px" y="0px"
	 viewBox="0 0 65 65" style="enable-background:new 0 0 65 65;" xml:space="preserve">
<style type="text/css">
	.st0{fill:#DFE1E0;}
	.st1{fill:#1E53F9;}
	.st2{fill:#3D65FF;}
	.st3{fill:#B7C6FF;}
	.st4{fill:#F1F1F1;}
	.st5{fill:#C7C6C5;}
	.st6{fill:#C4C6C5;}
	.st7{fill:#DCD3D2;}
	.st8{fill:#D3CFCE;}
</style>
<path class="st0" d="M47.5,9.5c-0.1,0.2,0.1,0.2,0.2,0.3c0.9,0.6,1.8,1.2,2.6,1.8l-2.9,4.6c-1.1-0.8-2.2-1.5-3.3-2.2l3-4.4H47.5
	L47.5,9.5z"/>
<path class="st1" d="M11.2,28.9c0.3-4.1,3.8-7.5,7.8-7.8c7.2-0.5,11.9,7.5,7.8,13.4c-0.2,0.3-1,1.1-1.1,1.3c-0.1,0.3,0.1,0.6,0.1,1
	c0,0.6,0,1.2-0.1,1.8c-0.3,0-1.8-1.2-2.3-1.2c-0.1,0-1.7,0.6-2.2,0.7c-5,0.9-9.8-2.7-10.2-7.8C11.1,29.9,11.1,29.3,11.2,28.9z
	 M19.1,24.7c0.2-0.2,0.1-0.6-0.2-0.7c-0.2,0-1.4,0.2-1.5,0.4c-0.1,0.1-0.1,0.7,0.2,0.7c0.4,0.1,0.7-0.2,0.5,0.7
	c-0.1,0.3-0.6,0.4-0.8,0.5c-0.2,0.2-1,0.9-1.1,0.9c-0.1,0-0.5-0.1-0.6-0.2c-0.1-0.1,0.2-0.7-0.3-0.5c-0.2,0.1-0.6,0.8-0.6,1
	c0.1,0.5,0.6,0,0.7,0.1c0.6,0.2,0,1.3,0,1.8c0,0.3,0.1,0.8,0,1.1c0,0.1-0.7,0.4-0.8,0.3c-0.1,0-0.1-0.4-0.5-0.3
	c-0.3,0.1,0,1.3,0.2,1.4c0.6,0.2,0.4-0.5,0.7-0.6c0.8-0.3,0.8,0.5,1.2,1c0.1,0.2,0.8,0.9,0.9,1c0,0.1-0.1,0.6-0.1,0.6
	c-0.1,0.1-1.2-0.4-0.9,0.6c0,0.1,1.5,1.1,1.8,0.6c0.3-0.6-0.3-0.6-0.3-0.7c0-0.1,0.3-0.5,0.4-0.5c0.1,0,1.3,0.3,1.6,0.3
	c0.3,0,0.7-0.2,1-0.1c0.2,0.3-0.1,0.4-0.1,0.6c0.2,0,0.8-0.1,0.8-0.2c0.1-0.2-0.6-0.1-0.3-0.6c0,0,0.7-0.3,0.9-0.4
	c0.6-0.4,1.1-1.4,1.8-0.8c0.1,0.1-0.2,0.3-0.1,0.5c0.1,0.3,0.5,0.4,0.8,0.2c0.1-0.1,0.6-1.1,0.7-1.2c0-0.3-0.2-0.6-0.6-0.5
	c-0.1,0-0.3,0.3-0.4,0.3c0,0-0.5-0.4-0.5-0.5c0-0.1,0.2-0.6,0.2-0.8c0.1-0.6,0-1.1,0.1-1.7c0.5-0.5,0.6,0.1,0.8,0.1
	c0.6,0,0.1-1.2,0-1.2c-0.3-0.2-0.6,0.1-0.4,0.4c-0.9,0.2-0.8-0.3-1.2-0.9c-0.1-0.2-0.3-0.4-0.4-0.5c-0.2-0.2-0.5-0.2-0.4-0.5
	c0-0.1,0.2-0.6,0.3-0.7c0,0,0.9,0.2,0.7-0.4c-0.1-0.3-1.6-1.2-1.6-0.3c0,0.3,0.3,0.3,0.3,0.4c0,0.1-0.6,0.7-0.7,0.7
	c-0.3-0.4-2-0.3-2.1-0.4c0,0-0.4-0.8-0.4-0.8C18.7,24.8,19,24.8,19.1,24.7L19.1,24.7z"/>
<path class="st1" d="M44.1,13.9c1.1,0.7,2.2,1.5,3.3,2.2c0.3,0.2,0.7,0.6,1.1,0.7c0,0,0,0.1,0,0.1c-0.7,1-1.4,2-2,3
	c-3.4-0.1-5.7,3.4-4.4,6.5c-1.2,1.5-2.1,3.3-3.4,4.8l-0.3,0.1L31.4,27c3.1-4.9,6.5-9.6,9.6-14.4c0.2-0.2,0.5-0.3,0.8-0.2
	C42.1,12.5,43.8,13.7,44.1,13.9L44.1,13.9z"/>
<path class="st1" d="M27.3,50.4c2.8,0,5.7,0,8.5,0c0.5,0,1,0,1.4,0c3.7,0,7.4,0,11.1,0c0.6,0,1.1,0,1.7,0c0.6,0,1.3-0.1,1.9,0.1
	c0.2,1.5-0.8,2.9-2.3,3H20.8c-0.3-1.1,0.2-2.4,1.3-2.9C23.2,50.2,26,50.4,27.3,50.4z"/>
<path class="st0" d="M46.5,40.6c0.1,0.3,0.4,0.4,0.6,0.7c0.5,0.6,1,1.5,1.2,2.2c0.3,1.3,0.2,5,0.2,6.5c0,0.2,0,0.3-0.1,0.5
	c-3.7,0-7.4,0-11.1,0c0.1-2-0.3-4.5,0.3-6.5c0.2-0.8,1.1-2,1.7-2.5C41,39.9,44.3,39.8,46.5,40.6L46.5,40.6z M43.3,43.6
	c-1.3,0.2-1.9,2-1.2,3c1.4,2,4.5,0.4,3.5-1.9C45.2,43.8,44.3,43.5,43.3,43.6z"/>
<path class="st2" d="M51.7,55.5H23c-1-0.1-1.9-0.9-2.2-1.9h28.8c1.5-0.2,2.5-1.5,2.3-3C54.6,51.2,54.4,55.1,51.7,55.5z"/>
<path class="st3" d="M46.6,20c0.8,0,2.4,0.7,3,1.3c1.2,1.1,1.6,3,1.3,4.6c-0.2,0.7-0.5,1.3-1,1.9c-0.7,0.9-1.7,1.4-2.9,1.5
	c-0.7,0.1-1.8,0-2.5-0.3c-0.8-0.4-2-1.6-2.3-2.4C40.8,23.5,43.2,19.9,46.6,20L46.6,20z M45.3,25.9c1.8,1.7,4-1.3,2-2.5
	c0,0-0.1-0.1-0.2-0.2C45.4,22.5,43.9,24.5,45.3,25.9z"/>
<path class="st4" d="M36.3,44c-1,2-0.4,4.3-0.5,6.5c-2.8,0-5.7,0-8.5,0V44C30.3,44,33.3,44,36.3,44L36.3,44z"/>
<path class="st4" d="M49.9,27.7c0.2,0,0.2,0.1,0.3,0.2c2.3,5,2.1,10.7-0.4,15.6c-0.4-0.9-1.5-2.1-2.3-2.6c0.3-0.2,0.4-0.6,0.5-1
	c1.4-3.5,1-7.4-0.9-10.7C48.1,29.1,49.1,28.6,49.9,27.7z"/>
<path class="st2" d="M44.5,29l-4,5.8c-0.5,0.3-1.2-0.2-1.7-0.5c-2.3-1.5-4.8-3.2-7.1-4.8c-0.3-0.2-1.1-0.7-1.1-1.1
	c0-0.4,0.6-1.1,0.8-1.5l7.1,4.5l0.3-0.1c1.3-1.5,2.2-3.3,3.4-4.8C42.6,27.4,43.7,28.6,44.5,29L44.5,29z"/>
<path class="st1" d="M39.2,41.5c-0.6,0.6-1.5,1.7-1.7,2.5h-1.2c-3,0-6,0-9.1,0c-0.5,0-1.2,0.1-1.7,0c-1.2-0.2-1.3-2.2-0.1-2.5
	L39.2,41.5L39.2,41.5z"/>
<path class="st5" d="M47.4,40.9c0.8,0.5,2,1.7,2.3,2.6c0.4,0.9,0.3,1.9,0.4,2.9c0,1.3,0,2.7,0,4c-0.6,0-1.1,0-1.7,0
	c0.1-0.2,0.1-0.3,0.1-0.5c0.1-1.5,0.2-5.2-0.2-6.5c-0.2-0.8-0.7-1.6-1.2-2.2c-0.2-0.2-0.5-0.4-0.6-0.7
	C46.8,40.7,47.1,40.8,47.4,40.9L47.4,40.9z"/>
<path class="st0" d="M36.3,35.3c-1.7-0.9-3.3-2.2-4.9-3.3c-0.5-0.6,0.1-1.4,0.3-1.9l4.6,3.1C36.8,33.9,36.8,34.6,36.3,35.3z"/>
<path class="st6" d="M38.9,34.3c-0.8,0.4-1.1,1.5-2.2,1.2c-0.2,0-0.2-0.2-0.3-0.3c0.4-0.7,0.5-1.4,0-2.1l-4.6-3.1
	c0.1-0.2,0.1-0.4,0.1-0.5C34.1,31.1,36.5,32.8,38.9,34.3z"/>
<path class="st7" d="M50.1,46.4c0-0.9,0-2-0.4-2.9c2.5-4.8,2.7-10.6,0.4-15.6c-0.1-0.1-0.1-0.3-0.3-0.2c0.5-0.6,0.8-1.2,1-1.9
	C55.1,31.9,54.8,40.7,50.1,46.4L50.1,46.4z"/>
<path class="st2" d="M49.6,21.3c-0.6-0.6-2.2-1.2-3-1.3c0.6-1.1,1.3-2,2-3c0.5,0.4,2.4,1.4,2.5,1.9C51.1,19.4,49.9,20.8,49.6,21.3
	L49.6,21.3z"/>
<path class="st6" d="M48.5,16.9c-0.4-0.1-0.7-0.5-1.1-0.7l2.9-4.6c0.4,0.3,1.2,0.5,0.9,1.2C50.4,14.2,49.4,15.5,48.5,16.9z"/>
<path class="st3" d="M19.1,24.7c-0.1,0.1-0.4,0.1-0.4,0.1c0,0,0.3,0.8,0.4,0.8c0.2,0.1,1.8,0,2.1,0.4c0.1,0,0.7-0.6,0.7-0.7
	c0-0.1-0.3-0.1-0.3-0.4c0-0.9,1.5,0,1.6,0.3c0.2,0.6-0.6,0.4-0.7,0.4c-0.1,0-0.2,0.6-0.3,0.7c0,0.3,0.3,0.3,0.4,0.5
	c0.1,0.1,0.3,0.4,0.4,0.5c0.4,0.6,0.3,1.1,1.2,0.9c-0.2-0.3,0.1-0.6,0.4-0.4c0.1,0,0.5,1.3,0,1.2c-0.2,0-0.3-0.6-0.8-0.1
	c-0.1,0.6,0.1,1.1-0.1,1.7c0,0.2-0.3,0.7-0.2,0.8c0,0.1,0.4,0.5,0.5,0.5c0.1,0,0.2-0.3,0.4-0.3c0.3-0.1,0.6,0.1,0.6,0.5
	c0,0.1-0.6,1.1-0.7,1.2c-0.2,0.2-0.7,0.1-0.8-0.2c-0.1-0.2,0.2-0.4,0.1-0.5c-0.7-0.5-1.2,0.5-1.8,0.8c-0.2,0.1-0.8,0.4-0.9,0.4
	c-0.3,0.4,0.4,0.3,0.3,0.6c0,0.2-0.6,0.3-0.8,0.2c0-0.3,0.2-0.4,0.1-0.6c-0.3-0.1-0.7,0.1-1,0.1c-0.3,0-1.5-0.4-1.6-0.3
	c-0.1,0-0.4,0.4-0.4,0.5c0,0.1,0.6,0.2,0.3,0.7c-0.3,0.6-1.8-0.5-1.8-0.6c-0.3-1,0.8-0.5,0.9-0.6c0,0,0.1-0.5,0.1-0.6
	c0-0.1-0.7-0.7-0.9-1c-0.3-0.5-0.4-1.2-1.2-1c-0.2,0.1-0.1,0.8-0.7,0.6c-0.2-0.1-0.5-1.3-0.2-1.4c0.5-0.1,0.5,0.3,0.5,0.3
	c0.1,0,0.7-0.3,0.8-0.3c0.1-0.3,0-0.7,0-1.1c0.1-0.5,0.7-1.6,0-1.8c-0.2,0-0.6,0.4-0.7-0.1c-0.1-0.2,0.4-0.9,0.6-1
	c0.5-0.2,0.3,0.4,0.3,0.5c0.1,0.1,0.5,0.2,0.6,0.2c0.1,0,0.8-0.8,1.1-0.9c0.2-0.2,0.8-0.3,0.8-0.5c0.2-0.9-0.1-0.6-0.5-0.7
	c-0.3-0.1-0.3-0.6-0.2-0.7c0.2-0.1,1.3-0.4,1.5-0.4C19.2,24,19.3,24.5,19.1,24.7L19.1,24.7z"/>
<path class="st8" d="M37.5,44c-0.6,2-0.1,4.4-0.3,6.5c-0.5,0-1,0-1.4,0c0.2-2.1-0.4-4.5,0.5-6.5H37.5z"/>
<path class="st3" d="M43.3,43.6c1-0.2,1.9,0.2,2.3,1.1c1,2.3-2.2,3.9-3.5,1.9C41.4,45.6,42,43.9,43.3,43.6z"/>
<path class="st4" d="M47.3,23.4c0.7,1.5-0.4,2.8-2,2.5c-1.4-1.3,0.1-3.4,1.8-2.7C47.2,23.2,47.3,23.3,47.3,23.4z"/>
<path class="st8" d="M45.3,25.9c1.6,0.3,2.6-1,2-2.5C49.3,24.6,47.1,27.6,45.3,25.9z"/>
</svg>
